<?xml version="1.0" encoding="utf-8"?>
<!-- Generator: Adobe Illustrator 16.2.0, SVG Export Plug-In . SVG Version: 6.00 Build 0)  -->
<!DOCTYPE svg PUBLIC "-//W3C//DTD SVG 1.1//EN" "http://www.w3.org/Graphics/SVG/1.1/DTD/svg11.dtd">
<svg version="1.1" id="Layer_1" xmlns="http://www.w3.org/2000/svg" xmlns:xlink="http://www.w3.org/1999/xlink" x="0px" y="0px"
	 width="850.39px" height="850.39px" viewBox="0 0 850.39 850.39" enable-background="new 0 0 850.39 850.39" xml:space="preserve">
<g>
	<path d="M765.08,35.699H84.919c-46.091,0-85.038,38.956-85.038,85.046v467.593c0,46.082,38.947,85.037,85.038,85.037h206.254
		l123.301,137.001c2.716,2.976,6.504,4.705,10.526,4.705c4.021,0,7.811-1.729,10.525-4.705l123.293-137.001H765.08
		c46.082,0,85.037-38.955,85.037-85.037V120.745C850.117,74.654,811.162,35.699,765.08,35.699L765.08,35.699z M226.625,404.157
		c-31.275,0-56.66-25.471-56.66-56.668c0-31.275,25.385-56.747,56.66-56.747c31.266,0,56.668,25.472,56.668,56.747
		C283.294,378.686,257.892,404.157,226.625,404.157L226.625,404.157z M425,404.157c-31.284,0-56.668-25.471-56.668-56.668
		c0-31.275,25.385-56.747,56.668-56.747c31.275,0,56.668,25.472,56.668,56.747C481.668,378.686,456.275,404.157,425,404.157
		L425,404.157z M623.375,404.157c-31.275,0-56.669-25.471-56.669-56.668c0-31.275,25.394-56.747,56.669-56.747
		c31.274,0,56.668,25.472,56.668,56.747C680.043,378.686,654.649,404.157,623.375,404.157L623.375,404.157z M623.375,404.157"/>
</g>
</svg>
