<svg xmlns="http://www.w3.org/2000/svg" width="850" height="850" viewBox="0 0 850 850"><path fill-rule="evenodd" clip-rule="evenodd" fill="#373535" d="M663.182 171.07l15.81 15.812L440.874 425l238.118 238.182-15.81 15.81-238.12-238.118-238.18 238.118-15.812-15.81L409.188 425 171.07 186.882l15.812-15.812 238.18 238.118"/><path fill-rule="evenodd" clip-rule="evenodd" fill="#373535" d="M849.707 425c-.004 117.267-41.485 217.354-124.444 300.263-82.91 82.96-182.996 124.44-300.263 124.444-117.266-.004-217.374-41.485-300.325-124.444C41.757 642.353.297 542.267.292 425c.005-117.267 41.466-217.375 124.382-300.325C207.624 41.76 307.734.297 425 .292c117.267.004 217.354 41.465 300.263 124.382 82.96 82.952 124.44 183.06 124.444 300.326zM716.38 716.38C796.87 635.924 837.114 538.797 837.11 425c.004-113.797-40.24-210.945-120.728-291.443C635.924 53.11 538.797 12.887 425 12.89c-113.796-.004-210.944 40.218-291.443 120.667C53.107 214.057 12.887 311.204 12.89 425c-.003 113.797 40.22 210.924 120.667 291.38C214.055 796.87 311.203 837.113 425 837.11c113.796.005 210.923-40.24 291.38-120.727z"/></svg>