<?xml version="1.0" encoding="utf-8"?><svg xmlns="http://www.w3.org/2000/svg" xmlns:xlink="http://www.w3.org/1999/xlink" version="1.1" class="page" pageAlignment="none" x="0px" y="0px" width="545.27px" height="455.87px" viewBox="0 0 545.27 455.87" enable-background="new 0 0 545.27 455.87" xml:space="preserve"><defs/><style type="text/css"/><style type="text/css"/><g type="LAYER" name="workspace" id="workspace" locked="true"/><g type="LAYER" name="Layer 01" id="Layer 01"><g transform="matrix(1 0 0 1 12.563841968917444 17.174717878432094)"><path transform="matrix(1 0 0 1 -143.06138178313364 -184.97790339671195)" width="148.04458936841633" height="148.04458936841627" stroke-width="0.9377507687773401" stroke="#000" fill="#000" d="M143.06138178313353,259.0001980809201 C143.06138178313353,218.11880986571117 176.20228825213272,184.9779033967119 217.08367646734158,184.9779033967119 C257.9650646825505,184.9779033967119 291.10597115154985,218.11880986571117 291.10597115154985,259.0001980809201 C291.10597115154985,299.8815862961291 257.9650646825505,333.02249276512816 217.08367646734158,333.02249276512816 C176.20228825213272,333.02249276512816 143.06138178313353,299.8815862961291 143.06138178313353,259.0001980809201 Z "/><path transform="matrix(1 0 0 1 -143.06138178313364 -184.97790339671195)" width="148.0445893684165" height="148.04458936841627" stroke-width="0.9377507687773401" stroke="#000" fill="#000" d="M324.7046434460731,259.0001980809201 C324.7046434460731,218.11880986571117 357.8455499150725,184.9779033967119 398.72693813028127,184.9779033967119 C439.60832634549035,184.9779033967119 472.7492328144896,218.11880986571117 472.7492328144896,259.0001980809201 C472.7492328144896,299.8815862961291 439.60832634549035,333.02249276512816 398.72693813028127,333.02249276512816 C357.8455499150725,333.02249276512816 324.7046434460731,299.8815862961291 324.7046434460731,259.0001980809201 Z "/><path transform="matrix(1 0 0 1 -143.06138178313364 -184.97790339671195)" width="148.0445893684165" height="148.04458936841627" stroke-width="0.9377507687773401" stroke="#000" fill="#000" d="M506.3479051090128,259.0001980809201 C506.3479051090128,218.11880986571117 539.4888115780121,184.9779033967119 580.3701997932209,184.9779033967119 C621.2515880084301,184.9779033967119 654.3924944774293,218.11880986571117 654.3924944774293,259.0001980809201 C654.3924944774293,299.8815862961291 621.2515880084301,333.02249276512816 580.3701997932209,333.02249276512816 C539.4888115780121,333.02249276512816 506.3479051090128,299.8815862961291 506.3479051090128,259.0001980809201 Z "/><path transform="matrix(1 0 0 1 -143.06138178313364 -184.97790339671195)" width="148.0445893684165" height="148.04458936841633" stroke-width="0.9377507687773401" stroke="#000" fill="#000" d="M324.7046434460731,538.4508649273366 C324.7046434460731,497.5694767121274 357.8455499150725,464.42857024312826 398.72693813028127,464.42857024312826 C439.60832634549035,464.42857024312826 472.7492328144896,497.5694767121274 472.7492328144896,538.4508649273366 C472.7492328144896,579.3322531425453 439.60832634549035,612.4731596115446 398.72693813028127,612.4731596115446 C357.8455499150725,612.4731596115446 324.7046434460731,579.3322531425453 324.7046434460731,538.4508649273366 Z "/><path transform="matrix(1 0 0 1 -143.06138178313364 -184.97790339671195)" width="511.3292371927582" height="24.950734704858576" stroke-width="0.9377507687773401" stroke="#000" fill="#000" d="M143.06325728467104,386.2501641516989 L291.10597115154985,386.2501641516989 L291.10597115154985,411.2008988565575 L143.06325728467104,411.2008988565575 Z M324.7055811968419,386.2501641516989 L472.7482950637208,386.2501641516989 L472.7482950637208,411.2008988565575 L324.7055811968419,411.2008988565575 Z M506.3479051090128,386.2501641516989 L654.3924944774293,386.2501641516989 L654.3924944774293,411.2008988565575 L506.3497806105506,411.2008988565575 Z "/></g></g></svg>