<svg xmlns="http://www.w3.org/2000/svg" width="850.39" height="850.39" viewBox="0 0 850.39 850.39"><path d="M6.672 489.197h247.005V820.9H6.672zM594.985 403.975h246.982V820.9H594.985zM300.72 280.198H547.9V820.9H300.72zM720.49 152.572l34.832 70.892 78.418 11.4-56.538 55.334 13.304 78.068-70.017-36.934-70.192 36.934 13.48-78.068-56.715-55.335 78.244-11.4 35.182-70.89zm0 0M425.742 29.54l34.986 71.066 78.42 11.378-56.737 55.292 13.305 77.937-69.973-36.803-70.038 36.803 13.303-77.937-56.736-55.292 78.42-11.378L425.74 29.54zm0 0M125.875 235.388l34.986 70.89 78.42 11.577-56.693 55.115 13.5 78.07-70.213-36.935L55.88 451.04l13.303-78.07-56.56-55.115 78.242-11.576 35.01-70.892zm0 0"/></svg>