<?xml version="1.0" encoding="utf-8"?><svg xmlns="http://www.w3.org/2000/svg" xmlns:xlink="http://www.w3.org/1999/xlink" version="1.1" class="page" pageAlignment="none" x="0px" y="0px" width="365.95px" height="365.95px" viewBox="0 0 365.95 365.95" enable-background="new 0 0 365.95 365.95" xml:space="preserve"><defs/><style type="text/css"/><style type="text/css"/><g type="LAYER" name="workspace" id="workspace" locked="true"/><g type="LAYER" name="Layer 01" id="Layer 01"><g transform="matrix(1 0 0 1 18.644411917099433 19.91190803108808)"><g transform="matrix(1 0 0 1 -5.684341886080802e-14 2.842170943040401e-14)"><path transform="matrix(1 0 0 1 -247.40294863668998 -233.4602065693525)" width="96.64328751816424" height="96.64328751816424" stroke-width="0.9121249553406596" stroke="#000000" fill="#000" d="M247.40294863668993,281.7818503284346 C247.40294863668993,255.09454096927868 269.0372830366161,233.46020656935247 295.72459239577205,233.46020656935247 C322.4119017549279,233.46020656935247 344.04623615485417,255.09454096927868 344.04623615485417,281.7818503284346 C344.04623615485417,308.4691596875905 322.4119017549279,330.1034940875167 295.72459239577205,330.1034940875167 C269.0372830366161,330.1034940875167 247.40294863668993,308.4691596875905 247.40294863668993,281.7818503284346 Z "/><path transform="matrix(1 0 0 1 -247.40294863668998 -233.4602065693525)" width="96.6432875181643" height="96.64328751816424" stroke-width="0.9121249553406596" stroke="#000000" fill="#000" d="M365.97919283097565,281.7818503284346 C365.97919283097565,255.09454096927868 387.61352723090187,233.46020656935247 414.30083659005777,233.46020656935247 C440.98814594921373,233.46020656935247 462.62248034913995,255.09454096927868 462.62248034913995,281.7818503284346 C462.62248034913995,308.4691596875905 440.98814594921373,330.1034940875167 414.30083659005777,330.1034940875167 C387.61352723090187,330.1034940875167 365.97919283097565,308.4691596875905 365.97919283097565,281.7818503284346 Z "/><path transform="matrix(1 0 0 1 -247.40294863668998 -233.4602065693525)" width="96.6432875181643" height="96.64328751816424" stroke-width="0.9121249553406596" stroke="#000000" fill="#000" d="M484.5554370252615,281.7818503284346 C484.5554370252615,255.09454096927868 506.18977142518764,233.46020656935247 532.8770807843437,233.46020656935247 C559.5643901434996,233.46020656935247 581.1987245434258,255.09454096927868 581.1987245434258,281.7818503284346 C581.1987245434258,308.4691596875905 559.5643901434996,330.1034940875167 532.8770807843437,330.1034940875167 C506.18977142518764,330.1034940875167 484.5554370252615,308.4691596875905 484.5554370252615,281.7818503284346 Z "/><path transform="matrix(1 0 0 1 -247.40294863668998 -233.4602065693525)" width="96.64328751816424" height="96.64328751816424" stroke-width="0.9121249553406596" stroke="#000000" fill="#000" d="M247.40294863668993,400.3580945227203 C247.40294863668993,373.67078516356446 269.0372830366161,352.0364507636383 295.72459239577205,352.0364507636383 C322.4119017549279,352.0364507636383 344.04623615485417,373.67078516356446 344.04623615485417,400.3580945227203 C344.04623615485417,427.04540388187627 322.4119017549279,448.67973828180254 295.72459239577205,448.67973828180254 C269.0372830366161,448.67973828180254 247.40294863668993,427.04540388187627 247.40294863668993,400.3580945227203 Z "/><path transform="matrix(1 0 0 1 -247.40294863668998 -233.4602065693525)" width="96.6432875181643" height="96.64328751816424" stroke-width="0.9121249553406596" stroke="#000000" fill="#000" d="M365.97919283097565,400.3580945227203 C365.97919283097565,373.67078516356446 387.61352723090187,352.0364507636383 414.30083659005777,352.0364507636383 C440.98814594921373,352.0364507636383 462.62248034913995,373.67078516356446 462.62248034913995,400.3580945227203 C462.62248034913995,427.04540388187627 440.98814594921373,448.67973828180254 414.30083659005777,448.67973828180254 C387.61352723090187,448.67973828180254 365.97919283097565,427.04540388187627 365.97919283097565,400.3580945227203 Z "/><path transform="matrix(1 0 0 1 -247.40294863668998 -233.4602065693525)" width="96.64328751816424" height="96.64328751816419" stroke-width="0.9121249553406596" stroke="#000000" fill="#000" d="M247.40294863668993,518.9343387170061 C247.40294863668993,492.24702935785024 269.0372830366161,470.612694957924 295.72459239577205,470.612694957924 C322.4119017549279,470.612694957924 344.04623615485417,492.24702935785024 344.04623615485417,518.9343387170061 C344.04623615485417,545.621648076162 322.4119017549279,567.2559824760882 295.72459239577205,567.2559824760882 C269.0372830366161,567.2559824760882 247.40294863668993,545.621648076162 247.40294863668993,518.9343387170061 Z "/></g></g></g></svg>