<?xml version="1.0" encoding="utf-8"?>
<!-- Generator: Adobe Illustrator 16.2.0, SVG Export Plug-In . SVG Version: 6.00 Build 0)  -->
<!DOCTYPE svg PUBLIC "-//W3C//DTD SVG 1.1//EN" "http://www.w3.org/Graphics/SVG/1.1/DTD/svg11.dtd">
<svg version="1.1" id="Layer_1" xmlns="http://www.w3.org/2000/svg" xmlns:xlink="http://www.w3.org/1999/xlink" x="0px" y="0px"
	 width="850.39px" height="850.39px" viewBox="0 0 850.39 850.39" enable-background="new 0 0 850.39 850.39" xml:space="preserve">
<g>
	<g>
		<defs>
			<rect id="SVGID_1_" x="4.611" y="27.145" width="843.669" height="805.015"/>
		</defs>
		<clipPath id="SVGID_2_">
			<use xlink:href="#SVGID_1_"  overflow="visible"/>
		</clipPath>
		<path clip-path="url(#SVGID_2_)" d="M783.586,282.43l-205.638-14.773c-4.295-0.343-8.069-2.926-9.613-7.045L489.998,69.921
			c-10.83-26.279-35.223-42.604-63.735-42.604c-28.519,0-52.744,16.325-63.733,42.78l-78.515,190.859
			c-1.719,3.951-5.325,6.701-9.62,7.037l-205.285,14.78c-27.833,1.544-51.538,19.754-60.647,46.556
			c-9.276,27.143-1.544,55.655,20.441,74.385L187.81,534.958c3.273,2.751,4.817,7.223,3.783,11.341l-48.44,198.248
			c-5.671,20.617-1.721,41.918,10.821,58.583c12.884,16.836,32.981,26.969,54.111,26.969c13.061,0,25.769-3.952,36.246-10.997
			l173.688-108.058c3.604-2.231,8.244-2.231,11.851,0l175.398,107.713c10.997,7.39,23.705,11.342,36.59,11.342
			c19.754,0,39.341-9.445,52.049-25.426c13.229-16.49,18.044-37.965,13.229-59.438l-48.61-198.76
			c-1.031-4.294,0.512-8.766,3.774-11.517l161.315-131.586c21.641-18.556,29.375-47.075,20.274-74.219
			C834.956,302.351,811.075,283.974,783.586,282.43L783.586,282.43z M796.814,370.9l-160.97,131.418
			c-15.805,12.885-23.019,34.191-18.035,54.113l48.618,198.424c2.575,11.677-2.064,19.755-5.159,23.538
			c-4.807,6.005-12.021,9.789-19.234,9.789c-4.471,0-8.934-1.376-13.748-4.639L452.2,675.318c-8.414-5.159-18.034-7.91-27.999-7.91
			c-9.966,0-19.757,2.751-28.178,8.077L221.656,783.886c-11.164,7.392-26.111,4.119-34.014-6.182
			c-3.262-4.295-6.702-11.685-3.605-22.506l48.616-198.936c4.809-19.754-2.24-40.885-17.866-53.768L56.224,371.412
			c-12.542-10.821-9.11-24.736-7.732-28.688c1.375-3.951,7.045-17.179,23.537-18.036l205.627-14.77
			c20.277-1.553,37.798-14.093,45.532-32.992l78.506-190.859c6.358-15.458,20.62-16.657,24.738-16.657
			c4.126,0,18.377,1.199,24.735,16.657l78.515,190.859c7.726,18.898,25.248,31.439,45.522,32.992l205.974,14.94
			c16.147,0.863,21.817,14.091,23.193,18.042C805.404,346.508,808.843,360.423,796.814,370.9L796.814,370.9z M796.814,370.9"/>
	</g>
</g>
</svg>
