<?xml version="1.0" encoding="utf-8"?>
<!-- Generator: Adobe Illustrator 16.2.0, SVG Export Plug-In . SVG Version: 6.00 Build 0)  -->
<!DOCTYPE svg PUBLIC "-//W3C//DTD SVG 1.1//EN" "http://www.w3.org/Graphics/SVG/1.1/DTD/svg11.dtd">
<svg version="1.1" id="Selected_Items" xmlns="http://www.w3.org/2000/svg" xmlns:xlink="http://www.w3.org/1999/xlink" x="0px"
	 y="0px" width="550px" height="400px" viewBox="0 0 550 400" enable-background="new 0 0 550 400" xml:space="preserve">
<path fill-rule="evenodd" clip-rule="evenodd" d="M382.341,30.179v14H180.047v-14H382.341z M482.332,32.244
	c1.373,1.362,2.06,3.006,2.065,4.935v357.618c0,1.913-0.677,3.57-2.03,4.97c-1.399,1.354-3.057,2.03-4.97,2.03H79.181
	c-1.914,0-3.546-0.676-4.9-2.03c-1.4-1.399-2.1-3.057-2.1-4.97V37.179c0.005-1.928,0.693-3.573,2.065-4.935
	c1.362-1.372,3.006-2.061,4.935-2.065h67.268v14H86.181v343.618h384.217V44.179H416.71v-14h60.688
	C479.326,30.184,480.97,30.872,482.332,32.244z"/>
<path fill-rule="evenodd" clip-rule="evenodd" d="M482.367,107.877c1.354,1.353,2.03,2.986,2.03,4.899v68.598h-14v-61.598H86.181
	v61.598h-14v-68.598c0-1.913,0.7-3.546,2.1-4.899c1.354-1.4,2.986-2.101,4.9-2.101h398.216
	C479.311,105.776,480.968,106.477,482.367,107.877z"/>
<path fill-rule="evenodd" clip-rule="evenodd" d="M447.998,207.203H110.61v-14h337.388V207.203z M447.998,305.199H110.61v-13.998
	h337.388V305.199z"/>
<path fill-rule="evenodd" clip-rule="evenodd" d="M411.109,12.049h-23.868v53.198h23.868V12.049z M373.241,9.25
	c0-7.466,3.733-11.2,11.2-11.2h29.468c7.467,0,11.2,3.734,11.2,11.2v58.798c0,7.467-3.733,11.2-11.2,11.2h-29.468
	c-7.467,0-11.2-3.733-11.2-11.2V9.25z"/>
<path fill-rule="evenodd" clip-rule="evenodd" d="M135.249,9.25c0-7.466,3.732-11.2,11.2-11.2h29.469c7.466,0,11.2,3.733,11.2,11.2
	v58.798c0,7.467-3.734,11.2-11.2,11.2h-29.469c-7.466,0-11.2-3.733-11.2-11.2V9.25z M173.118,12.049h-23.87v53.198h23.87V12.049z"/>
</svg>
