<?xml version="1.0" encoding="utf-8"?>
<!-- Generator: Adobe Illustrator 16.2.0, SVG Export Plug-In . SVG Version: 6.00 Build 0)  -->
<!DOCTYPE svg PUBLIC "-//W3C//DTD SVG 1.1//EN" "http://www.w3.org/Graphics/SVG/1.1/DTD/svg11.dtd">
<svg version="1.1" id="Layer_1" xmlns="http://www.w3.org/2000/svg" xmlns:xlink="http://www.w3.org/1999/xlink" x="0px" y="0px"
	 width="850.39px" height="850.39px" viewBox="0 0 850.39 850.39" enable-background="new 0 0 850.39 850.39" xml:space="preserve">
<g>
	<path fill="#1E201D" d="M424.363,2.666c116.795,0,222.481,47.526,299.244,123.9c76.462,76.863,124,182.549,124,299.344
		s-47.538,222.581-124,299.344c-76.763,76.462-182.449,123.9-299.244,123.9c-116.807,0-222.493-47.438-298.942-123.9
		C48.558,648.491,1.42,542.705,1.42,425.91s47.138-222.48,123.9-299.344C201.87,50.192,307.557,2.666,424.363,2.666L424.363,2.666z
		 M640.039,402.779c12.71,0,22.818,10.421,22.818,23.131s-10.108,23.119-22.818,23.119H424.363c-8.507,0-15.9-4.904-19.828-11.71
		l-0.375-0.3l-0.313-0.701v-0.3l-0.313-0.701l-0.375-0.6v-0.4l-0.313-0.601l-0.313-0.301v-0.7l-0.275-0.601v-0.4l-0.412-0.601
		v-1.301l-0.301-0.4V150.385c0-12.697,10.121-22.818,22.818-22.818c12.61,0,23.007,10.121,23.007,22.818v252.394H640.039z
		 M691.08,159.18C622.825,90.825,528.448,48.903,424.363,48.903c-104.097,0-198.448,41.922-266.804,110.277
		C89.579,227.436,47.257,321.813,47.257,425.91c0,104.085,42.322,198.461,110.303,266.817
		c68.355,68.255,162.707,110.289,266.804,110.289c104.085,0,198.462-42.034,266.717-110.289
		c68.356-68.356,110.69-162.633,110.69-266.817C801.771,321.813,759.437,227.436,691.08,159.18L691.08,159.18z M691.08,159.18"/>
</g>
</svg>
