<?xml version="1.0" encoding="utf-8"?>
<!-- Generator: Adobe Illustrator 16.2.0, SVG Export Plug-In . SVG Version: 6.00 Build 0)  -->
<!DOCTYPE svg PUBLIC "-//W3C//DTD SVG 1.1//EN" "http://www.w3.org/Graphics/SVG/1.1/DTD/svg11.dtd">
<svg version="1.1" id="Selected_Items" xmlns="http://www.w3.org/2000/svg" xmlns:xlink="http://www.w3.org/1999/xlink" x="0px"
	 y="0px" width="850px" height="850px" viewBox="0 0 850 850" enable-background="new 0 0 850 850" xml:space="preserve">
<polygon fill-rule="evenodd" clip-rule="evenodd" fill="#373535" points="663.182,171.07 678.992,186.882 440.874,425 
	678.992,663.182 663.182,678.992 425.063,440.874 186.882,678.992 171.07,663.182 409.188,425 171.07,186.882 186.882,171.07 
	425.063,409.188 "/>
<path fill-rule="evenodd" clip-rule="evenodd" fill="#373535" d="M849.707,425c-0.004,117.267-41.485,217.354-124.444,300.263
	C642.354,808.222,542.267,849.703,425,849.707c-117.266-0.004-217.374-41.485-300.325-124.444
	C41.757,642.354,0.297,542.267,0.292,425c0.005-117.267,41.466-217.375,124.382-300.325C207.625,41.759,307.733,0.297,425,0.292
	c117.267,0.004,217.354,41.465,300.263,124.382C808.222,207.626,849.703,307.734,849.707,425z M716.381,716.381
	C796.869,635.923,837.113,538.796,837.108,425c0.004-113.797-40.239-210.945-120.728-291.443
	C635.924,53.109,538.797,12.887,425,12.891c-113.796-0.005-210.944,40.217-291.443,120.666
	C53.108,214.056,12.886,311.204,12.891,425c-0.004,113.797,40.218,210.924,120.666,291.381
	C214.055,796.869,311.203,837.112,425,837.108C538.796,837.113,635.923,796.869,716.381,716.381z"/>
</svg>
