<?xml version="1.0" encoding="utf-8"?>
<!-- Generator: Adobe Illustrator 16.2.0, SVG Export Plug-In . SVG Version: 6.00 Build 0)  -->
<!DOCTYPE svg PUBLIC "-//W3C//DTD SVG 1.1//EN" "http://www.w3.org/Graphics/SVG/1.1/DTD/svg11.dtd">
<svg version="1.1" id="Layer_1" xmlns="http://www.w3.org/2000/svg" xmlns:xlink="http://www.w3.org/1999/xlink" x="0px" y="0px"
	 width="850.39px" height="850.39px" viewBox="0 0 850.39 850.39" enable-background="new 0 0 850.39 850.39" xml:space="preserve">
<g>
	<path d="M424.658,3.269C190.183,3.269,1.879,191.572,1.879,426.037c0,234.37,188.304,422.673,422.779,422.673
		c234.359,0,422.662-188.303,422.662-422.673C847.32,191.572,659.018,3.269,424.658,3.269L424.658,3.269z M610.979,497.06
		L438.063,670.071c-3.847,3.847-9.559,5.723-13.405,5.723c-5.84,0-9.687-1.876-13.521-5.723L238.22,497.06
		c-3.835-3.847-5.711-7.693-5.711-13.416c0-5.724,1.876-9.57,5.711-13.417l26.928-26.928c7.682-7.693,19.245-7.693,26.833,0
		l76.924,76.842c5.746,5.816,17.275,1.97,17.275-7.693V195.418c0-11.528,7.682-19.245,19.233-19.245h38.362
		c11.563,0,19.245,7.717,19.245,19.245v318.999c0,7.693,9.664,13.417,17.357,7.693l76.841-76.935c7.693-7.693,19.234-7.693,26.834,0
		l26.927,26.927c3.847,3.847,5.817,7.694,5.817,13.417C616.797,489.367,614.826,493.213,610.979,497.06L610.979,497.06z
		 M610.979,497.06"/>
</g>
</svg>
