<?xml version="1.0" encoding="utf-8"?>
<!-- Generator: Adobe Illustrator 16.2.0, SVG Export Plug-In . SVG Version: 6.00 Build 0)  -->
<!DOCTYPE svg PUBLIC "-//W3C//DTD SVG 1.1//EN" "http://www.w3.org/Graphics/SVG/1.1/DTD/svg11.dtd">
<svg version="1.1" id="Layer_1" xmlns="http://www.w3.org/2000/svg" xmlns:xlink="http://www.w3.org/1999/xlink" x="0px" y="0px"
	 width="850.39px" height="850.39px" viewBox="0 0 850.39 850.39" enable-background="new 0 0 850.39 850.39" xml:space="preserve">
<g>
	<g>
		<defs>
			<rect id="SVGID_1_" x="-0.55" y="104.952" width="850.939" height="641.875"/>
		</defs>
		<clipPath id="SVGID_2_">
			<use xlink:href="#SVGID_1_"  overflow="visible"/>
		</clipPath>
		<path clip-path="url(#SVGID_2_)" fill-rule="evenodd" clip-rule="evenodd" d="M837.256,381.728
			c-41.908-192.467-101.13-239.882-137.188-258.866c-57.666-30.566-124.649-12.775-146.856-1.313
			c-25.192,13.029-42.267,37.759-67.817,48.475c-29.597,12.328-69.982,15.656-100.174,0.747
			c-24.237-11.835-45.49-37.267-74.743-48.61c-37.013-14.208-98.755-34.251-159.886,9.537
			C136.174,141.965,33.016,228.408,2.077,498.364c-19.104,166.47,72.101,220.076,68.772,217.66
			c23.506,16.715,76.041,45.281,147.32,0.597c47.654-29.729,86.234-88.474,86.234-88.474s17.179-32.715,40.103-46.564
			c16.104-9.88,40.341-2.357,40.341-2.357h85.742c0,0,27.103-3.463,46.206,5.015c18.626,8.118,29.013,28.06,29.013,28.06
			s56.477,72.949,110.561,110.172c23.046,15.76,115.697,33.938,163.455-24.446C850.986,659.819,872.358,542.332,837.256,381.728
			L837.256,381.728z M379.713,364.639c0,14.582-11.67,26.536-26.013,26.536h-64.817v66.146c0,14.655-11.597,26.506-25.924,26.506
			h-19.477c-14.297,0-26.013-11.851-26.013-26.506v-66.146h-64.818c-14.342,0-26.043-11.835-26.043-26.536v-19.805
			c0-14.701,11.701-26.506,26.043-26.506h64.818v-66.266c0-14.581,11.597-26.491,25.894-26.491h19.477
			c14.327,0,26.043,11.91,26.043,26.491v66.266H353.7c14.343,0,26.013,11.805,26.013,26.506V364.639z M562.524,457.322
			c-26.864,0-48.714-22.238-48.714-49.67c0-27.356,21.85-49.668,48.714-49.668s48.596,22.192,48.596,49.668
			C611.12,435.083,589.389,457.322,562.524,457.322L562.524,457.322z M651.715,346.969c-26.627,0-48.118-21.939-48.118-49.057
			c0-27.104,21.491-49.087,48.118-49.087c26.624,0,48.115,21.983,48.115,49.087C699.83,325.03,678.339,346.969,651.715,346.969
			L651.715,346.969z M651.715,346.969"/>
	</g>
</g>
</svg>
