<?xml version="1.0" encoding="utf-8"?>
<!-- Generator: Adobe Illustrator 16.2.0, SVG Export Plug-In . SVG Version: 6.00 Build 0)  -->
<!DOCTYPE svg PUBLIC "-//W3C//DTD SVG 1.1//EN" "http://www.w3.org/Graphics/SVG/1.1/DTD/svg11.dtd">
<svg version="1.1" id="Layer_1" xmlns="http://www.w3.org/2000/svg" xmlns:xlink="http://www.w3.org/1999/xlink" x="0px" y="0px"
	 width="850.39px" height="850.39px" viewBox="0 0 850.39 850.39" enable-background="new 0 0 850.39 850.39" xml:space="preserve">
<g>
	<path d="M424.328,5.411C192.227,5.411,4.02,193.618,4.02,425.718s188.207,420.308,420.308,420.308
		c232.101,0,420.308-188.207,420.308-420.308S656.429,5.411,424.328,5.411L424.328,5.411z M488.556,655.132
		c0,35.294-28.854,63.78-64.049,63.78c-35.205,0-64.05-28.486-64.05-63.78V376.001c0-35.204,28.845-63.78,64.05-63.78
		c35.194,0,64.049,28.576,64.049,63.78V655.132z M424.328,259.548c-38.877,0-70.41-31.532-70.41-70.42
		c0-38.877,31.533-70.41,70.41-70.41c38.878,0,70.409,31.533,70.409,70.41C494.737,228.016,463.206,259.548,424.328,259.548
		L424.328,259.548z M424.328,259.548"/>
</g>
</svg>
