<?xml version="1.0" encoding="utf-8"?>
<!-- Generator: Adobe Illustrator 16.2.0, SVG Export Plug-In . SVG Version: 6.00 Build 0)  -->
<!DOCTYPE svg PUBLIC "-//W3C//DTD SVG 1.1//EN" "http://www.w3.org/Graphics/SVG/1.1/DTD/svg11.dtd">
<svg version="1.1" id="Layer_1" xmlns="http://www.w3.org/2000/svg" xmlns:xlink="http://www.w3.org/1999/xlink" x="0px" y="0px"
	 width="850.39px" height="850.39px" viewBox="0 0 850.39 850.39" enable-background="new 0 0 850.39 850.39" xml:space="preserve">
<g>
	<rect x="6.672" y="489.197" width="247.005" height="331.703"/>
	<rect x="594.985" y="403.975" width="246.982" height="416.925"/>
	<rect x="300.719" y="280.198" width="247.18" height="540.702"/>
	<path d="M720.489,152.572l34.833,70.892l78.418,11.399l-56.538,55.335l13.304,78.068l-70.017-36.934l-70.191,36.934l13.479-78.068
		l-56.714-55.335l78.244-11.399L720.489,152.572z M720.489,152.572"/>
	<path d="M425.742,29.54l34.986,71.066l78.419,11.378l-56.736,55.292l13.304,77.937l-69.973-36.803l-70.038,36.803l13.303-77.937
		l-56.736-55.292l78.418-11.378L425.742,29.54z M425.742,29.54"/>
	<path d="M125.875,235.388l34.986,70.891l78.418,11.576l-56.692,55.115l13.501,78.069l-70.214-36.934l-69.994,36.934l13.303-78.069
		l-56.561-55.115l78.243-11.576L125.875,235.388z M125.875,235.388"/>
</g>
</svg>
