<?xml version="1.0" encoding="utf-8"?>
<!-- Generator: Adobe Illustrator 16.2.0, SVG Export Plug-In . SVG Version: 6.00 Build 0)  -->
<!DOCTYPE svg PUBLIC "-//W3C//DTD SVG 1.1//EN" "http://www.w3.org/Graphics/SVG/1.1/DTD/svg11.dtd">
<svg version="1.1" id="Layer_1" xmlns="http://www.w3.org/2000/svg" xmlns:xlink="http://www.w3.org/1999/xlink" x="0px" y="0px"
	 width="850.39px" height="850.39px" viewBox="0 0 850.39 850.39" enable-background="new 0 0 850.39 850.39" xml:space="preserve">
<g>
	<g>
		<defs>
			<rect id="SVGID_1_" x="40.989" y="6.002" width="766.823" height="839.656"/>
		</defs>
		<clipPath id="SVGID_2_">
			<use xlink:href="#SVGID_1_"  overflow="visible"/>
		</clipPath>
		<path clip-path="url(#SVGID_2_)" d="M196.871,172.358C320.483,60.539,505.484,58.835,630.81,160.903l-99.337,3.766
			c-12.823,0.508-22.741,11.111-22.232,23.934c0.519,12.482,10.778,22.225,23.084,22.225h0.852l152.516-5.635
			c12.481-0.518,22.224-10.603,22.224-23.083v-2.738l-5.644-150.798c-0.509-12.823-11.278-22.74-23.935-22.23
			c-12.823,0.518-22.741,11.111-22.224,23.935l3.59,94.553c-62.07-50.781-138.491-80.185-220.222-84.292
			c-101.214-5.127-198.499,29.578-273.559,97.627C62.662,231.688,18.891,373.938,51.718,509.348
			c2.563,10.603,11.962,17.613,22.397,17.613c1.878,0,3.591-0.176,5.469-0.683c12.312-3.081,20.001-15.562,16.928-27.867
			C67.787,379.413,106.081,254.431,196.871,172.358L196.871,172.358z M196.871,172.358"/>
		<path clip-path="url(#SVGID_2_)" d="M795.799,340.602c-3.081-12.312-15.562-20.001-27.867-16.931
			c-12.313,3.082-20.011,15.563-16.931,27.867c28.894,118.999-9.575,243.982-100.364,326.055
			c-63.772,57.62-143.783,85.996-223.462,85.996c-76.084,0-151.998-25.813-213.207-76.763l100.537-9.066
			c12.648-1.196,22.049-12.306,20.854-25.129c-1.192-12.823-12.306-22.057-25.128-20.862l-151.999,13.683
			c-12.654,1.191-22.055,12.306-20.86,25.129l13.682,151.999c1.026,11.961,11.111,21.029,22.909,21.029c0.684,0,1.367,0,2.054-0.176
			c12.647-1.193,22.055-12.306,20.854-25.128l-8.207-92.5c62.07,50.266,138.147,79.501,219.36,83.608
			c6.495,0.343,12.999,0.51,19.318,0.51c94.213,0,183.799-34.537,254.242-98.136C784.854,618.261,828.624,476.18,795.799,340.602
			L795.799,340.602z M795.799,340.602"/>
	</g>
</g>
</svg>
