<?xml version="1.0" encoding="utf-8"?>
<!-- Generator: Adobe Illustrator 16.2.0, SVG Export Plug-In . SVG Version: 6.00 Build 0)  -->
<!DOCTYPE svg PUBLIC "-//W3C//DTD SVG 1.1//EN" "http://www.w3.org/Graphics/SVG/1.1/DTD/svg11.dtd">
<svg version="1.1" id="Layer_1" xmlns="http://www.w3.org/2000/svg" xmlns:xlink="http://www.w3.org/1999/xlink" x="0px" y="0px"
	 width="850.39px" height="850.39px" viewBox="0 0 850.39 850.39" enable-background="new 0 0 850.39 850.39" xml:space="preserve">
<g>
	<g>
		<defs>
			<rect id="SVGID_1_" x="22.515" y="-7.259" width="803.771" height="865.218"/>
		</defs>
		<clipPath id="SVGID_2_">
			<use xlink:href="#SVGID_1_"  overflow="visible"/>
		</clipPath>
		<path clip-path="url(#SVGID_2_)" d="M821.9,812.404L587.732,568.829c59.715-59.946,96.73-142.497,96.73-233.542
			c0-182.542-148.52-330.974-330.975-330.974c-182.532,0-330.974,148.432-330.974,330.974
			c0,182.465,148.442,330.984,330.974,330.984c80.108,0,153.598-28.704,210.928-76.185l234.706,244.152
			c3.078,3.231,7.233,4.771,11.389,4.771c3.924,0,7.849-1.463,10.927-4.368C827.672,828.641,827.902,818.617,821.9,812.404
			L821.9,812.404z M353.488,634.701c-165.141,0-299.413-134.341-299.413-299.414c0-165.141,134.272-299.424,299.413-299.424
			c165.063,0,299.424,134.283,299.424,299.424C652.912,500.36,518.552,634.701,353.488,634.701L353.488,634.701z M353.488,634.701"
			/>
	</g>
</g>
</svg>
