<?xml version="1.0" encoding="utf-8"?>
<!-- Generator: Adobe Illustrator 16.2.0, SVG Export Plug-In . SVG Version: 6.00 Build 0)  -->
<!DOCTYPE svg PUBLIC "-//W3C//DTD SVG 1.1//EN" "http://www.w3.org/Graphics/SVG/1.1/DTD/svg11.dtd">
<svg version="1.1" id="Layer_1" xmlns="http://www.w3.org/2000/svg" xmlns:xlink="http://www.w3.org/1999/xlink" x="0px" y="0px"
	 width="850.39px" height="850.39px" viewBox="0 0 850.39 850.39" enable-background="new 0 0 850.39 850.39" xml:space="preserve">
<g>
	<g>
		<defs>
			<rect id="SVGID_1_" x="34.858" y="-8.998" width="780.203" height="869.734"/>
		</defs>
		<clipPath id="SVGID_2_">
			<use xlink:href="#SVGID_1_"  overflow="visible"/>
		</clipPath>
		<path clip-path="url(#SVGID_2_)" d="M573.891,601.162c-7.424,7.425-13.878,15.613-19.36,24.27L308.963,476.395
			c6.445-16.255,10.123-33.949,10.123-52.477c0-18.58-3.678-36.223-10.123-52.53l245.637-147.934
			c25.188,39.631,69.391,66.061,119.769,66.061c78.344,0,142.114-63.771,142.114-142.114c0-78.343-63.771-142.114-142.114-142.114
			c-78.342,0-142.113,63.771-142.113,142.114c0,17.834,3.47,34.904,9.507,50.595L295.779,346.148
			c-25.406-38.729-69.123-64.343-118.807-64.343c-78.343,0-142.114,63.701-142.114,142.113c0,78.36,63.771,142.114,142.114,142.114
			c49.684,0,93.401-25.675,118.807-64.396l245.915,149.278c-6.105,16.012-9.438,33.099-9.438,50.707
			c0,37.976,14.78,73.711,41.635,100.479c27.688,27.688,64.119,41.565,100.479,41.565c36.362,0,72.792-13.878,100.479-41.565
			c26.854-26.837,41.635-62.504,41.635-100.479c0-37.938-14.78-73.606-41.635-100.461
			C719.475,545.717,629.335,545.717,573.891,601.162L573.891,601.162z M674.369,33.748c62.73,0,113.733,51.003,113.733,113.654
			c0,62.652-51.003,113.655-113.733,113.655c-62.659,0-113.662-51.003-113.662-113.655C560.707,84.75,611.71,33.748,674.369,33.748
			L674.369,33.748z M176.972,537.598c-62.652,0-113.655-51.002-113.655-113.68c0-62.721,51.003-113.724,113.655-113.724
			c62.721,0,113.724,51.003,113.724,113.724C290.696,486.596,239.693,537.598,176.972,537.598L176.972,537.598z M754.795,782.065
			c-44.341,44.341-116.508,44.341-160.779,0c-21.512-21.512-33.309-50.049-33.309-80.442c0-30.323,11.797-58.896,33.309-80.338
			c22.136-22.205,51.279-33.238,80.354-33.238c29.146,0,58.221,11.033,80.426,33.238c21.441,21.442,33.308,50.015,33.308,80.338
			C788.103,732.016,776.236,760.553,754.795,782.065L754.795,782.065z M754.795,782.065"/>
	</g>
</g>
</svg>
