<?xml version="1.0" encoding="utf-8"?>
<!-- Generator: Adobe Illustrator 16.2.0, SVG Export Plug-In . SVG Version: 6.00 Build 0)  -->
<!DOCTYPE svg PUBLIC "-//W3C//DTD SVG 1.1//EN" "http://www.w3.org/Graphics/SVG/1.1/DTD/svg11.dtd">
<svg version="1.1" id="Selected_Items" xmlns="http://www.w3.org/2000/svg" xmlns:xlink="http://www.w3.org/1999/xlink" x="0px"
	 y="0px" width="550px" height="400px" viewBox="0 0 550 400" enable-background="new 0 0 550 400" xml:space="preserve">
<path fill-rule="evenodd" clip-rule="evenodd" fill="#373535" d="M391.187,26.225v346.059c0,4.972-1.34,9.555-4.021,13.749
	c-2.638,4.193-6.205,7.328-10.701,9.403c-3.415,1.644-7.046,2.465-10.895,2.465c-6.14,0-11.608-1.968-16.408-5.902L209.143,275.91
	h-74.647c-7.047,0-13.078-2.507-18.093-7.523c-5.016-4.972-7.524-11.003-7.524-18.094V148.214c0-7.091,2.508-13.144,7.524-18.159
	c5.015-5.015,11.046-7.522,18.093-7.522h74.647L349.161,6.445c3.848-3.157,8.236-5.037,13.166-5.643
	c4.929-0.648,9.642,0.087,14.137,2.205c4.496,2.119,8.063,5.274,10.701,9.469C389.847,16.67,391.187,21.252,391.187,26.225z"/>
</svg>
