<?xml version="1.0" encoding="utf-8"?>
<!-- Generator: Adobe Illustrator 16.2.0, SVG Export Plug-In . SVG Version: 6.00 Build 0)  -->
<!DOCTYPE svg PUBLIC "-//W3C//DTD SVG 1.1//EN" "http://www.w3.org/Graphics/SVG/1.1/DTD/svg11.dtd">
<svg version="1.1" id="Layer_1" xmlns="http://www.w3.org/2000/svg" xmlns:xlink="http://www.w3.org/1999/xlink" x="0px" y="0px"
	 width="850.39px" height="850.39px" viewBox="0 0 850.39 850.39" enable-background="new 0 0 850.39 850.39" xml:space="preserve">
<g>
	<g>
		<defs>
			<rect id="SVGID_1_" x="1" y="85.39" width="851.146" height="682"/>
		</defs>
		<clipPath id="SVGID_2_">
			<use xlink:href="#SVGID_1_"  overflow="visible"/>
		</clipPath>
		<path clip-path="url(#SVGID_2_)" d="M424.27,685.17c0,14.907-8.614,28.45-22.106,34.755c-5.195,2.486-10.784,3.686-16.345,3.686
			c-8.741,0-17.45-3.02-24.509-8.881L151.303,540.734H39.407C18.189,540.734,1,523.496,1,502.271v-153.05
			c0-21.218,17.189-38.451,38.407-38.451h111.896l210.006-174.047c11.505-9.501,27.396-11.55,40.899-5.162
			c13.448,6.311,22.062,19.858,22.062,34.772V685.17z M571.908,625.129c-0.932,0.044-1.82,0.089-2.752,0.089
			c-10.168,0-19.937-3.985-27.174-11.234l-5.15-5.15c-13.453-13.453-15.053-34.766-3.686-50.084
			c28.771-38.762,43.957-84.762,43.957-132.98c0-51.905-17.271-100.563-49.862-140.757c-12.433-15.263-11.278-37.463,2.62-51.366
			l5.15-5.145c7.682-7.687,17.938-11.855,29.082-11.2c10.834,0.538,20.957,5.65,27.84,14.042
			c45.244,55.363,69.177,122.63,69.177,194.427c0,66.867-21.179,130.494-61.185,184.042
			C593.266,618.736,583.053,624.33,571.908,625.129L571.908,625.129z M730.775,743.857c-6.971,8.215-17.006,13.144-27.75,13.588
			c-0.533,0.044-1.066,0.044-1.643,0.044c-10.168,0-19.937-4.04-27.174-11.233l-5.018-5.063
			c-14.119-14.074-15.052-36.631-2.265-51.904c61.983-73.661,96.128-167.258,96.128-263.52c0-100.164-36.541-196.52-102.877-271.43
			c-13.453-15.218-12.787-38.224,1.51-52.571l5.063-5.056c7.459-7.504,17.183-11.672,28.327-11.322
			c10.567,0.311,20.558,5.012,27.618,12.926c80.143,90.262,124.322,206.554,124.322,327.453
			C847.063,542.054,805.77,655.011,730.775,743.857L730.775,743.857z M730.775,743.857"/>
	</g>
</g>
</svg>
