<?xml version="1.0" encoding="utf-8"?>
<!-- Generator: Adobe Illustrator 16.2.0, SVG Export Plug-In . SVG Version: 6.00 Build 0)  -->
<!DOCTYPE svg PUBLIC "-//W3C//DTD SVG 1.1//EN" "http://www.w3.org/Graphics/SVG/1.1/DTD/svg11.dtd">
<svg version="1.1" id="Selected_Items" xmlns="http://www.w3.org/2000/svg" xmlns:xlink="http://www.w3.org/1999/xlink" x="0px"
	 y="0px" width="850px" height="850px" viewBox="0 0 850 850" enable-background="new 0 0 850 850" xml:space="preserve">
<path fill-rule="evenodd" clip-rule="evenodd" fill="#373535" d="M503.796,408.416l4.099-0.44
	c7.027-0.487,16.202-0.731,27.522-0.731c11.026-0.097,20.2,0.098,27.521,0.585l22.834,2.489h0.148l1.17,0.293l20.2,3.659
	c7.029,1.561,13.567,3.22,19.617,4.976l12.441,3.807c5.271,1.756,10.394,3.66,15.371,5.709c3.123,1.171,7.71,3.123,13.761,5.854
	l1.901,0.881c54.653,25.079,98.226,62.994,130.724,113.739C833.702,599.986,850,655.369,850,715.386l-1.173,26.791H631.152
	l-8.783-30.156h197.475c-0.585-53.48-15.566-102.812-44.942-147.996c-29.471-45.283-68.605-79.097-117.399-101.443l-39.087-14.495
	c-5.659-1.56-11.513-3.024-17.567-4.391l-39.083-5.71c-7.221-0.486-18.541-0.732-33.961-0.732c-15.028,0-25.864,0.246-32.497,0.732
	l-7.612,1.172l14.64-30.741H503.796z M410.987,52.259C447.975,17.419,491.744,0,542.294,0c52.993,0,98.276,18.786,135.849,56.359
	c37.474,37.571,56.212,82.853,56.212,135.846v1.608c0,27.911-6.103,54.701-18.299,80.367c-12.199,25.667-29.374,47.673-51.528,66.02
	l-7.758,6.003c-2.927,2.342-5.22,4.05-6.881,5.124c-3.611,2.438-8.101,5.221-13.467,8.342l-2.635,1.464
	c-4.002,2.148-8.054,4.101-12.15,5.856l-4.83,2.343l-17.567,6.44l-18.444,4.685c-3.61,0.586-6.295,1.025-8.05,1.318l-11.126,1.609
	c-6.247,0.586-12.689,0.879-19.325,0.879h-1.608c-4.588,0-10.54-0.195-17.858-0.585c-7.515-0.487-13.47-1.025-17.862-1.61
	l9.077-30.23c9.191,1.61,18.561,2.417,28.105,2.417h1.319c5.174,0,10.247-0.293,15.225-0.879l4.393-0.585l27.08-5.855l18.885-7.319
	c4.781-2.147,8.196-3.758,10.247-4.833l2.196-1.316c5.562-3.221,9.317-5.514,11.27-6.881c1.368-0.877,3.123-2.196,5.269-3.953
	l7.175-5.417c18.737-15.614,33.277-34.302,43.624-56.065c10.246-21.762,15.371-44.696,15.371-68.801l0.146-1.464
	c0-44.014-15.86-81.781-47.576-113.303c-31.718-31.62-69.875-47.43-114.476-47.43c-53.479,0-99.785,24.886-138.918,74.657
	l-25.984-11.711C386.356,78.457,397.555,64.843,410.987,52.259z"/>
<path fill-rule="evenodd" clip-rule="evenodd" fill="#373535" d="M374.83,546.752l-39.085-5.71c-13.369-0.878-26.74-0.878-40.109,0
	l-39.817,5.856c-5.66,1.365-11.224,2.83-16.689,4.391c-3.025,0.78-7.368,2.147-13.028,4.098l-2.488,0.88
	c-8.197,2.927-15.859,6.002-22.983,9.222l-0.292,0.438l-3.075,1.171c-47.82,22.446-86.171,56.115-115.059,101.006
	c-28.984,44.99-43.818,93.98-44.502,146.972h556.121c-0.585-53.479-15.565-102.811-44.942-147.996
	c-29.47-45.28-68.604-79.097-117.4-101.445l-39.085-14.49C386.737,549.579,380.881,548.116,374.83,546.752z M287.584,511.471h1.904
	l4.098-0.438c13.956-0.977,28.399-1.024,43.332-0.146l22.835,2.487h0.146l1.172,0.293l20.201,3.659
	c7.026,1.561,13.565,3.222,19.615,4.979l12.443,3.806c5.271,1.755,10.394,3.658,15.37,5.708c3.125,1.171,7.71,3.122,13.761,5.856
	l1.904,0.876c54.649,25.083,98.226,62.995,130.722,113.743c32.597,50.749,48.893,106.13,48.893,166.147l-1.172,26.79H8.719
	l-1.025-26.79c0-59.04,15.906-113.743,47.722-164.096c31.717-50.359,74.266-88.323,127.649-113.891l2.488-1.172
	c8.587-4.002,17.957-7.808,28.106-11.418l3.073-1.17c6.149-2.05,10.834-3.515,14.055-4.391c5.659-1.661,11.856-3.27,18.59-4.832
	L287.584,511.471z M478.179,295.407l0.146-1.464c0-44.013-15.86-81.782-47.573-113.303c-31.72-31.619-69.877-47.429-114.477-47.429
	c-42.646,0-79.584,14.687-110.814,44.062c-31.132,29.278-48.015,65.19-50.649,107.739l-0.586,10.248
	c0,32.693,8.979,62.555,26.936,89.588c17.957,27.13,41.964,47.039,72.022,59.725l14.784,5.417
	c15.519,4.881,31.571,7.319,48.162,7.319h1.316c5.173,0,10.247-0.293,15.225-0.878l4.391-0.586l27.082-5.855l18.885-7.32
	c4.782-2.146,8.197-3.756,10.246-4.83l2.196-1.318c5.562-3.219,9.319-5.513,11.271-6.878c1.366-0.879,3.124-2.195,5.271-3.953
	l7.171-5.417c18.738-15.614,33.28-34.303,43.625-56.064C473.055,342.444,478.179,319.512,478.179,295.407z M508.334,295.26v1.61
	c0,27.911-6.099,54.699-18.298,80.366c-12.201,25.667-29.375,47.672-51.527,66.02l-7.757,6.001c-2.93,2.344-5.223,4.051-6.882,5.123
	c-3.611,2.441-8.101,5.222-13.469,8.345l-2.634,1.464c-4.001,2.147-8.051,4.099-12.15,5.855l-4.831,2.343l-17.566,6.441
	l-18.446,4.684c-3.609,0.585-6.294,1.024-8.051,1.317l-11.125,1.611c-6.246,0.584-12.688,0.876-19.324,0.876h-1.61
	c-19.029-0.096-37.621-2.975-55.773-8.635l-10.538-3.807c-4.197-1.562-6.491-2.438-6.881-2.636
	c-35.622-15.126-64.117-38.694-85.49-70.704c-21.274-32.108-31.911-67.534-31.911-106.276l0.586-12.15
	c3.122-50.455,23.226-93.053,60.311-127.794c36.986-34.84,80.756-52.261,131.308-52.261c52.992,0,98.275,18.787,135.847,56.359
	C489.595,196.986,508.334,242.268,508.334,295.26z"/>
</svg>
